<?xml version="1.0"?>
<svg xmlns="http://www.w3.org/2000/svg" version="1.1" viewBox="0 0 836.6154360856839 620.1592961679917" width="100%">
  <defs>
    <style>
      @font-face {
        font-family: "Virgil";
        src: url("https://excalidraw.com/Virgil.woff2");
      }
      @font-face {
        font-family: "Cascadia";
        src: url("https://excalidraw.com/Cascadia.woff2");
      }
    </style>
  </defs>
  <rect x="0" y="0" width="836.6154360856839" height="620.1592961679917" fill="#ffffff"/>
  <g stroke-linecap="round" transform="translate(10.655195523104908 14.711128609687421) rotate(0 127 80.5)">
    <path d="M0 0 C0 0, 0 0, 0 0 M0 0 C0 0, 0 0, 0 0 M0.07 7.13 C1.47 4.83, 2.19 2.84, 5.14 -0.39 M-0.24 6.48 C1.06 4.94, 2.32 3.86, 4.72 0.36 M1.04 10.83 C4.51 8.18, 6.21 4.77, 11.14 -1 M0.62 12.81 C2.46 9.08, 4.14 6.84, 10.09 -0.42 M0.74 20.11 C5.74 10.02, 10.98 6.5, 13.9 1.69 M-0.69 17.49 C5.46 11.27, 11.11 5.6, 16.47 0.2 M1.04 24.01 C3.82 20.26, 11.1 12.95, 19.96 -2.05 M-0.16 24.79 C6.09 17.98, 12.12 11.97, 21.26 0.05 M0.61 31.53 C7.11 24.46, 10.14 15.91, 27.06 1.91 M0.91 30.71 C8.27 19.36, 17.26 9.34, 26.71 0.9 M1.39 38.41 C8.74 25.12, 19.75 13.85, 31.41 -0.82 M0.69 36 C8.13 28.2, 14.88 18.21, 32.2 0.09 M1.34 42.64 C9.39 34.52, 16.88 23.27, 37.15 2.14 M-0.28 41.96 C11.16 30.5, 22.11 18.26, 37.61 -0.26 M-1.05 48.2 C12.74 35.46, 21.9 23.05, 44.04 1.35 M-0.32 49.88 C9.58 37.98, 20.89 25.27, 43.3 -0.05 M0.36 53.32 C14.35 42.12, 25.12 24.64, 48.73 1.15 M0.75 55.08 C17.76 33.81, 35.08 13.78, 47.62 0.11 M0.6 61.92 C15.33 44.5, 30.04 29.8, 52.52 -0.91 M-0.9 60.11 C13.92 44.99, 28.18 28.9, 52.93 0.1 M-1.31 67.96 C18.12 45.09, 39.16 23.42, 58.59 1.46 M0.23 66.79 C17.39 47.18, 35.29 26.5, 59.06 -0.45 M-1.85 71.08 C21.83 47.62, 42.29 26.32, 63.78 -1.22 M-0.23 73.7 C25.01 43.1, 51.96 13.75, 63.35 -0.89 M-0.44 80.44 C14.92 59.42, 30.98 41.75, 67.79 1.33 M0.22 79.67 C21.02 57.59, 40.88 34.14, 68.11 -0.31 M-0.36 86.93 C17.4 63.7, 37.41 41.78, 72.99 -1.43 M0.37 85.8 C24.98 56.14, 47.75 28.37, 74.68 -0.3 M0.49 90.66 C31.45 55.89, 60.11 23.59, 77.63 -1.24 M0.7 90.69 C26.24 62.97, 49.68 35.29, 78.86 0.31 M0.72 97.24 C20.78 77.48, 36.31 55, 83.59 0.34 M-1.18 98.45 C26.34 66.16, 53.94 35.2, 84.94 0.71 M-0.08 101.5 C30.6 69.11, 61.64 33.9, 89.66 -0.49 M0.18 104.18 C31.08 66.69, 64.2 29.77, 89.23 -0.68 M-0.75 111.27 C20.16 83.17, 40.6 60.94, 95.24 -2.28 M0.88 109.53 C28.85 75.16, 58.81 41.79, 96 -0.9 M0.51 115.59 C30.46 80.41, 59.24 48.73, 101.67 1.11 M1.03 114.61 C24.94 86.29, 49.3 57.42, 101.05 0.74 M-0.61 120.28 C24.21 95.52, 46.42 69.27, 107.88 0.1 M0.21 121.32 C41.18 74.17, 80.68 26.76, 105.63 -0.04 M0.54 128.08 C42.6 79.32, 84.06 29.44, 111.72 0.81 M-1.15 129.31 C42.15 78.78, 84.93 28.32, 112.01 0.72 M-1.83 134.53 C41.86 87.37, 82.17 40.81, 117.02 1.38 M1 133.48 C32.04 94.93, 65.06 56.41, 116.79 1.26 M0.5 139.6 C46.4 92.15, 86.82 41.09, 122.12 -0.37 M-0.9 139.5 C25.09 109.65, 52.05 79.62, 121.68 -0.46 M0.9 144.03 C48.87 92.33, 93.54 41.51, 128.4 0.92 M-0.68 145.79 C43.08 96.61, 87.44 45.38, 126.3 0.83 M-0.77 152.74 C48.13 99.42, 94.32 43.81, 131.52 -1.51 M-0.8 152.73 C50.3 94.49, 101.16 34.63, 133.4 -0.37 M0.39 159.25 C54.37 97.43, 105.78 38.24, 137.98 0.15 M0.38 158.88 C45.46 106.56, 91.77 55.29, 136.96 0.81 M1.47 163.66 C39.48 115.42, 81.01 67.97, 142.48 1.21 M2 162.61 C52.02 105.31, 101.02 47.67, 142.85 -0.52 M7.21 163.86 C53.27 112.49, 96.4 59.09, 147.03 -0.5 M6.81 162.94 C61.91 98.8, 115.71 36.24, 147.86 0.91 M11.39 164.61 C50.63 118.96, 84.98 77.7, 154.06 0.97 M11.7 162.92 C67.26 100.65, 122.22 37.81, 154.64 -0.33 M18.5 161.03 C59.2 117.6, 96.9 72.59, 159.9 -0.99 M17.39 161.67 C60.83 114.99, 103.18 65.05, 158.28 0.82 M23.46 163.67 C76.62 98.71, 130.42 35.3, 165.68 1.3 M22.3 163.52 C75.4 102.06, 127.59 40.74, 164.45 -0.84 M29.49 162.39 C77.53 108.96, 124.95 51.83, 170.83 -1.41 M28.45 162.58 C66.63 120.81, 104.56 78.08, 169.11 0.4 M34.57 161.61 C79.05 111.16, 125.46 59.29, 173.46 -1.49 M33.37 162.09 C62.7 129.18, 92.01 95.81, 174.86 0.47 M38.9 161.62 C91.4 97.96, 148.21 35.07, 181.3 1.41 M39.51 162.52 C76.71 118.2, 117.44 72.67, 179.38 -0.38 M45.3 162.47 C94.91 106.02, 143.82 48.15, 184.19 -0.85 M44.38 163.41 C98.96 97.56, 155.47 33.16, 186.57 -0.74 M49.19 162.67 C87.9 118.32, 129.54 70.92, 189.47 -0.06 M49.97 161.95 C99.47 103.55, 150.41 45.53, 191.49 0.3 M52.98 163.1 C103.04 109.67, 149.62 54.78, 197.94 -0.91 M54.66 163.61 C90.82 122.25, 128.29 79.52, 196.7 0.02 M59.53 162.26 C100.31 119.42, 136.13 74.77, 200.77 0.42 M60.88 163.19 C108.84 108.86, 154.68 54.21, 200.74 0.89 M65.61 163.62 C107.33 113.33, 151.64 62.84, 207.97 0.96 M65.22 162.45 C112.89 107.91, 160.52 53.58, 207.49 0.39 M69.31 163.9 C127.81 100.49, 181.62 35.84, 210.31 -1.62 M71.41 161.67 C103.77 123.88, 136.43 84.74, 211.09 -0.08 M77.46 163.93 C116.95 114.74, 158.62 68.03, 218.26 0.19 M75.18 163.28 C127.57 102.7, 180.23 40.64, 217.58 -0.18 M81.63 163.9 C118.44 115.7, 159.81 72.22, 223.94 -0.37 M80.65 161.68 C130.31 108.79, 175.41 55.62, 222.85 -0.45 M86.49 163.71 C134.53 107.6, 181.49 53.59, 229.51 -1.04 M87.05 162.58 C132.7 109.88, 177.48 56.98, 229 -0.33 M92.82 161.81 C137.69 106.8, 182.55 54.81, 233.7 -0.74 M92.82 162.36 C132.91 119.36, 170.4 74.51, 232.77 0.29 M97.89 162.44 C130.28 125.32, 158.06 91.27, 238.49 0 M96.27 162.16 C146.88 104.28, 198.25 45.55, 237.76 0.37 M102.92 160.49 C154.21 105.39, 202.92 47.25, 242.39 -0.88 M103.26 162.97 C152.73 107.39, 199.82 50.96, 244.44 -0.72 M106.55 162.83 C157.42 106.12, 206.68 47.42, 247.64 0.08 M108.61 162.22 C144.91 116.27, 183.58 72.4, 248.74 0.22 M112.2 162.58 C160.96 106.64, 210.79 49.8, 253 0.89 M114.23 162.88 C148.16 123.49, 179.91 86.9, 254.38 0.74 M118.09 163.96 C162.14 113.1, 200.77 65.29, 255.95 7.54 M117.52 163.06 C153.98 123.06, 188.38 83.96, 254.23 5.92 M124.07 164.44 C161.29 121.12, 194.36 80.07, 254.11 11.68 M123.75 162.23 C153.26 126.7, 186.67 91.11, 252.95 13.14 M127.72 160.85 C163.6 124.02, 192.91 87.05, 254.41 16.4 M128.56 163.42 C167.51 117.44, 206.29 73.71, 254.02 17.38 M133.18 162.66 C168.98 118.47, 206.54 78.33, 253.89 22.77 M133.17 162.84 C168.01 121.6, 201.76 82.72, 253.85 25.55 M138.28 163.4 C182.29 115.22, 223.15 65.28, 253.51 29.41 M140.43 161.64 C170.75 127.34, 200.84 93.45, 255.05 30.86 M143.75 164.31 C188.54 112.99, 229.74 64.33, 255.63 36.19 M144.15 163.23 C175.39 124.1, 208.76 87.4, 254.03 36.05 M148.93 161.91 C188.99 119.36, 228.51 72.78, 255.1 44.46 M151.16 162.51 C187.76 119.63, 223.31 79.76, 254.23 43.34 M157.08 163.41 C180.86 131.93, 203.68 104.64, 255.78 48.82 M154.75 163.16 C174.75 139.92, 196.05 115.6, 255 47.98 M159.08 162.27 C199.76 118.39, 235.54 76.62, 255.06 56.83 M160.75 162.86 C181.62 140.74, 199.78 116.61, 254.31 55.71 M166.72 161.7 C186.8 139.16, 207.07 113.93, 254.99 61.3 M164.93 162.55 C199.63 123.99, 233.24 85.97, 254.14 60.79 M172.42 162.13 C204.76 127.42, 232.96 92.52, 255.51 67.77 M171.08 161.66 C198.9 133.57, 223.4 104.61, 253.96 67.25 M178.48 164.71 C197.8 138.98, 215.17 116.29, 253.55 74.77 M176.48 163.4 C205.28 131.03, 233.14 99.08, 254.06 72.84 M180.86 162.86 C198.4 145.01, 212.47 128.48, 255.53 77.55 M181.91 161.98 C205.99 136.59, 229.17 109.28, 254.37 78.6 M186.4 161.7 C211.04 134.06, 237.67 102.91, 253.94 83.86 M187.12 161.88 C209.86 135.5, 233.83 107.68, 253.19 86.33 M192.59 161.6 C215.58 134.15, 242.41 106.82, 254.4 90.17 M192.87 163.06 C212.82 139.12, 232.89 115.85, 254.6 90.55 M196.79 161.68 C216.66 140.27, 237.32 118.39, 252.92 97.21 M198.4 162.26 C215.79 141.33, 234.82 119.8, 253.89 97.84 M204.03 163.25 C211.88 149.69, 224.88 137.06, 255.02 102.16 M203.46 162.21 C213.12 150.81, 224.93 137.14, 254.95 104.75 M208.2 161.41 C227.07 142.93, 243.32 122.43, 256.19 110.46 M207.78 162.93 C221.53 147.39, 234.83 130.91, 255.03 109.35 M215.85 160.44 C224.63 146.53, 238.61 132.81, 254.5 115.52 M215.07 162.92 C227.05 149.08, 237.55 135, 253.54 116.72 M219.42 161.4 C233.08 145.67, 245.12 131.22, 253.65 122.99 M218.56 162.43 C229.36 151.69, 238.78 141.31, 255.37 120.93 M224.98 161.55 C233.69 151.33, 246.01 135.18, 252.24 126.26 M224.95 162.75 C234.52 152.57, 241.84 142.11, 254.42 128.35 M229.51 161.91 C234.19 155.83, 238.14 150.54, 254.84 134.69 M229.95 163.41 C236.75 154.3, 242.26 147.87, 254.89 135.56 M235.95 163.47 C240.55 158.25, 245.49 151.61, 252.54 141.39 M235.58 162.19 C242.26 155.53, 249.69 145.75, 254.14 140.93 M241.76 162.96 C243.77 157.87, 246.8 153.88, 255.49 146.95 M241 162.64 C245.63 156.31, 250.85 151.07, 253.4 146.07 M244.03 164.08 C247.84 158.55, 251.56 154.13, 255.51 151.88 M245.28 163.36 C247.22 160.66, 249.39 158.7, 254.96 152 M251.15 162.95 C252.05 161.17, 253.77 159.81, 254.07 158.83 M250.88 162.63 C252.3 161.09, 253.52 160.03, 254.33 158.96" stroke="#ced4da" stroke-width="0.5" fill="none"/>
    <path d="M0.34 -0.67 C62.89 0.43, 126.36 2.04, 252.75 0.62 M-0.27 -0.14 C54.35 0.71, 108.08 0.04, 254.2 -0.72 M254.33 -0.97 C253.37 38.47, 254.66 82.88, 252.54 162.38 M254.41 -0.77 C252.79 62.06, 253.32 125.03, 253.69 161.32 M255.33 159.98 C158.98 159.69, 64.32 161.07, 0.25 162.36 M253.22 161.8 C174.74 160.31, 97.31 160.48, 0.22 161.03 M-0.47 162.17 C-0.74 121.06, -1.12 77.63, -0.93 0.64 M-0.49 161.08 C-1.3 127.7, -2.32 95.37, -0.78 -0.19" stroke="#000000" stroke-width="1" fill="none"/>
  </g>
  <g transform="translate(95.65519552310491 19.71112860968742) rotate(0 38.5 18)">
    <text x="0" y="25" font-family="Virgil, Segoe UI Emoji" font-size="28px" fill="#000000" text-anchor="start" style="white-space: pre;" direction="ltr">Klijent</text>
  </g>
  <g stroke-linecap="round">
    <g transform="translate(10.015648499131203 106.71112860968742) rotate(0 126.34505299056804 1.7250281577800877)">
      <path d="M-0.02 0.63 C42.06 1.19, 210.8 2.63, 252.71 2.82" stroke="#000000" stroke-width="1.5" fill="none" stroke-dasharray="1.5 7"/>
    </g>
  </g>
  <g transform="translate(67.65519552310491 68.57158158571366) rotate(0 71.5 10.5)">
    <text x="0" y="15" font-family="Virgil, Segoe UI Emoji" font-size="16px" fill="#000000" text-anchor="start" style="white-space: pre;" direction="ltr">Sakupi input korisnika</text>
  </g>
  <g transform="translate(59.66227479300903 120.41557719516163) rotate(0 83 21)">
    <text x="0" y="15" font-family="Virgil, Segoe UI Emoji" font-size="16px" fill="#000000" text-anchor="start" style="white-space: pre;" direction="ltr">Prika&#x17E;i serverov </text>
    <text x="0" y="36" font-family="Virgil, Segoe UI Emoji" font-size="16px" fill="#000000" text-anchor="start" style="white-space: pre;" direction="ltr">trentno stanje igre</text>
  </g>
  <g stroke-linecap="round" transform="translate(14.417675977899876 237.29249474129676) rotate(0 127 80.5)">
    <path d="M0 0 C0 0, 0 0, 0 0 M0 0 C0 0, 0 0, 0 0 M0.26 6.06 C2.1 3.72, 4.41 1.95, 4.97 0.1 M-0.21 6.6 C1.56 4.49, 2.89 3.12, 5.23 0.07 M-0.84 12.96 C4.82 6.51, 7.09 3.84, 9.81 -0.74 M-0.12 11.32 C3.58 8.28, 6.1 5.73, 10.66 -0.08 M-1.07 20.03 C5.09 10.51, 11.28 7.86, 15.02 0.65 M0.09 19.02 C6.07 12.1, 11.08 5.73, 16.4 0.14 M2.16 24.35 C9.54 15.32, 17.41 3.2, 21.4 -0.21 M-0.09 23.3 C8.85 15.24, 16.41 6.49, 21.78 -0.82 M0.58 32.16 C8.74 20.03, 20.22 8.19, 26.35 1.13 M-0.53 31.03 C9.36 20.01, 17.71 8.95, 25.59 -0.62 M0.12 37.45 C9.88 27, 14.85 16, 32.62 -1.98 M-0.69 37.5 C12.3 22.46, 24.14 8.83, 32.31 -0.16 M1.27 41.95 C11.35 31.16, 20.35 18.86, 37.36 0.04 M1.08 41.74 C8.85 33.53, 17.46 22.42, 37.68 -0.32 M-0.48 50.87 C7.11 38.04, 15.45 29.26, 43.84 0.52 M0.34 48.06 C8.67 38.88, 17.64 28.11, 42.69 -0.73 M0.55 53.16 C14.29 38.99, 30.93 21.97, 46.72 0.02 M-0.13 54.03 C14.33 38.95, 27.27 22.89, 47.06 -0.49 M1.39 61 C12.54 46.95, 25.02 28.4, 51.83 1.82 M-0.78 61.71 C13.06 46.69, 26.14 31.22, 53.25 -0.98 M1.57 66.06 C16.01 47.13, 34.14 28.36, 57.37 -0.54 M0 67.69 C22.16 42.54, 45.12 16.33, 57.97 -0.54 M-0.36 71.23 C14.96 55.93, 29.84 41.46, 65.66 0.18 M0.7 72.53 C16.01 54.01, 31.79 34.94, 64.17 0.73 M1.69 78.41 C13.01 63.82, 30.52 44.6, 68.46 0.49 M-0.53 80.35 C26.41 50.28, 53.13 18.83, 68.55 0.24 M0.46 84.69 C21.6 61.26, 47.26 34.81, 74.63 1.6 M-0.57 84.74 C16.73 66.25, 31.52 48.24, 73.54 0.17 M0.56 89.96 C18.8 68.01, 41.17 42.05, 79.44 0.99 M0.2 92.06 C31.56 54.67, 62.19 18.8, 78.8 0.7 M1.61 97.03 C25.59 71.32, 45.98 41.52, 84.29 -0.15 M-0.75 97.43 C27.92 66.69, 55.29 33.83, 85.28 -0.75 M-1.27 103.47 C19.58 82.43, 38.53 57.66, 89.98 -1.38 M0.63 104.21 C26.95 71.46, 54.76 39.17, 90.61 -0.22 M-0.91 109.36 C29.32 77, 59.11 41.89, 96.44 0.44 M-0.16 109.55 C19.54 86.55, 39.93 64.01, 95.22 -0.02 M1 117.47 C22.62 88.82, 45.55 61.46, 100 -1.26 M1.08 116.32 C24.85 87.3, 49.48 59.92, 99.73 0.58 M-0.84 120.84 C36.88 76.6, 78.65 32.67, 105.13 0.64 M0.82 122.44 C28.1 87.4, 57.15 54.52, 107.05 0.53 M-0.24 126.97 C28.07 94.17, 61.52 59.78, 109.68 -1.49 M-0.91 128.81 C37.11 86.04, 73.02 44.85, 111.8 0.32 M1 133.6 C40.82 85.76, 85.34 32.24, 116 2.2 M0.31 134.82 C38.9 87.79, 80.19 41.07, 115.69 -0.08 M1.62 140.47 C30.29 101.71, 63.83 67.93, 123.44 -1.2 M0.03 139.93 C35.07 98.2, 71.16 57.12, 122.3 0.33 M0.03 145.53 C38.23 105.65, 73.34 64.11, 124.92 0.38 M0.31 145.53 C38.28 105.77, 72.62 64.26, 127.88 1.04 M-0.46 152.47 C41.83 103.44, 86.59 52.07, 133.82 0.22 M-0.72 152.34 C41.16 107.44, 81.05 60.32, 132.63 0.05 M-0.67 158.98 C28.8 126.14, 54.05 94.75, 137.97 0.43 M0.03 158.34 C45.96 103.65, 93.2 49.64, 138.21 1.07 M0.59 163 C56.63 99.65, 112.19 39.08, 142.3 -0.67 M1.69 162.6 C45.76 109.06, 92.38 57.37, 143.95 -0.77 M7.17 161.74 C41.76 123.41, 79.57 84.05, 146.6 -1.13 M7.75 162.37 C62.27 98.13, 117.64 34.43, 148.14 0.88 M10.69 164.09 C59.01 105.35, 108.85 49.99, 153.32 -0.07 M11.28 163.57 C58.84 111.54, 103.9 59.1, 153.71 -0.69 M19.15 163.63 C61.89 113.63, 103 66.14, 157.46 -0.8 M18.57 162.27 C62.7 108.62, 107.53 57.13, 158.49 1.08 M22.66 163.7 C62.9 117.99, 101.02 71.12, 164.58 -1.59 M22.01 162.57 C63.21 116.11, 103.13 69.72, 164.54 0.15 M28.84 162.21 C66.05 121.13, 101.29 79.89, 170.16 1.21 M28.76 162.97 C59.6 126.45, 91.52 89.7, 170.1 0.7 M31.76 162.49 C72.05 118.91, 112.22 71.18, 174.07 1.43 M33.39 163.45 C66.54 124.71, 99.68 86.54, 175.46 -0.02 M40.35 161.54 C90.44 102.82, 143.73 41.7, 181.01 0.97 M39.54 162.27 C67.12 128.22, 97.2 95.63, 180.17 0.64 M43.91 164.4 C100.26 99.86, 153.3 34.81, 186.96 1.49 M44.83 163.16 C98.14 102.13, 149.69 42.07, 185.38 0.61 M50.98 161.94 C92.74 112.92, 138.16 61.12, 190.07 1.34 M50.27 161.55 C106.95 97.94, 161.44 33.28, 191.06 0.15 M54.8 162.68 C94.65 117.33, 134.41 71.61, 194.66 1.31 M53.88 162.27 C102.41 110.34, 148.1 56.56, 196.6 0.48 M61.77 163.55 C105.69 111.23, 150.37 58, 201.09 1.46 M60.16 162.31 C103.09 111.09, 147.58 60.07, 201.52 0.36 M63.83 164.31 C118.09 102.82, 172.11 41.36, 206.28 -0.08 M64.96 163.21 C113.44 108.21, 162.84 52.52, 207.81 -0.1 M70.45 162.76 C101.93 126.94, 134.85 88.47, 211.06 0.24 M70.12 162.65 C116.52 110.85, 161.76 58.78, 211.93 0.73 M77.57 162.11 C121.88 110.78, 163.21 59.23, 217.18 -0.37 M75.4 163.28 C111.12 119.49, 149.28 77.03, 217.61 -0.74 M82 162.76 C114.24 122.36, 150.4 82.43, 224.18 -0.13 M80.9 162.55 C132 104.68, 182.79 44.59, 222.58 0.85 M85.38 162.64 C126.61 114.24, 167.55 66.65, 229.9 -0.97 M85.92 163.36 C136.1 104.55, 187.17 44.81, 227.96 -0.92 M91.1 163 C149.86 97.09, 203.8 34.55, 234.37 -1.16 M91.42 162.09 C124.28 125.47, 156.47 88.55, 233.64 0.41 M97.78 161.75 C139.43 110.12, 187.25 60.37, 239.58 0.74 M97.12 162.72 C141.64 112.32, 185.49 62.11, 238.31 0.74 M103.16 162.74 C139.5 118.25, 177.63 73.94, 242.76 -1.08 M102.23 161.44 C141.71 115.85, 179.89 70.29, 243.41 -0.77 M108.06 162.09 C162.83 100.15, 215.08 36.31, 250.53 1.41 M107.76 162.47 C135.66 128.89, 165.21 95.59, 248.25 -0.04 M113.3 161 C146.87 122, 181.02 84.97, 254.21 1.62 M113.77 162.65 C158.12 109.5, 204.96 55.85, 253.59 0.7 M116.65 162.56 C154.07 120.6, 191.15 79.13, 253.03 5.74 M118.21 162.07 C165.56 106.78, 212.43 52.1, 253.49 6.12 M123.17 164.53 C159.04 123.74, 196.01 80.29, 255.9 14.33 M124.06 163.46 C174.88 105.99, 223.04 48.94, 254.73 12.4 M127.67 161.78 C168.08 117.19, 208.92 72.99, 254.04 18.5 M128.74 162.94 C160.16 127.38, 192.59 90.95, 253.8 18.44 M133.12 162.82 C172.89 113.56, 217 66.17, 253.63 23.82 M134.43 162.62 C162.7 128.12, 193.61 93.06, 254.63 24.45 M138.87 161.92 C176.22 123.69, 209.21 84.15, 255.66 31.16 M139.59 162.9 C168.06 131.51, 194.55 99.07, 254.22 30.14 M145.65 162.57 C184.5 115.68, 227.57 66.66, 253.01 36.12 M144.4 163.68 C187.99 115.58, 228.11 65.95, 254.08 35.99 M151.33 161 C185.91 124.24, 222.5 81.35, 253.53 41.28 M150.81 161.65 C176.54 130.2, 204.14 99.27, 253.54 43.26 M156.19 161.68 C188.72 126.48, 219.12 88.52, 252.6 47.97 M155.99 163.48 C175.92 137.32, 198.57 114.15, 254.53 49.43 M162.61 160.79 C195.83 120.37, 229.25 83.6, 253.63 56.01 M160.35 163.1 C184.13 133.8, 208.69 106.85, 254.43 55.77 M164.4 161.78 C190.23 132.69, 216.28 102.42, 255.19 59.91 M165.06 162.96 C184.7 142.05, 203 122.04, 255.3 61.28 M170.5 162.79 C199.18 132.49, 222 103.08, 252.23 68.46 M172.03 163.27 C187.95 141.4, 204.71 122.88, 253.5 68 M178.23 164.25 C206.25 130.08, 238.05 95.3, 255.18 72.93 M177.39 163.23 C194.53 141.96, 214.11 120.62, 254.92 72.96 M181.06 164.27 C200.89 140.72, 218.37 119.63, 254.5 78.8 M181.54 162.31 C202.09 140.13, 222.6 117, 253.87 79.68 M185.84 162.24 C208.42 140.26, 226.25 116.19, 253.18 85.55 M186.6 163.5 C212.14 133.84, 237.28 104.3, 253.78 85.72 M192.58 162.24 C208.81 143.05, 225.89 124.75, 253.87 90.89 M192.44 162.51 C207.76 143.02, 224.56 126.78, 254.56 90.63 M199.66 164.63 C215.29 142.75, 235.06 119.79, 256.09 98.28 M198.19 163.09 C217.2 140.22, 237.04 118.9, 254.15 97.23 M203.62 161.46 C216.84 146.58, 231.45 128.02, 255.36 105.13 M204.19 162.25 C221.05 142.28, 239.32 120.83, 253.8 103.59 M208.36 164.06 C222.38 144.3, 237.05 127.22, 255.71 110.62 M207.54 163.49 C217.79 152.05, 228.15 140.04, 254.87 110.51 M212.97 162.44 C227.36 147.86, 239.71 133.05, 254.21 115.41 M214.09 162.07 C230.24 144.03, 244.26 126.82, 253.64 117.11 M220.88 160.91 C233.52 146.46, 245.21 132.43, 256.08 121.86 M219.92 162.27 C231.66 148.11, 244.02 133.78, 254.61 122.71 M223.69 161.45 C231.87 152.88, 239.04 147.86, 255.93 129.6 M225.35 162.61 C236.21 150.73, 246.9 137.13, 254.06 128.18 M230.38 163.32 C234.43 153.9, 242.58 149.53, 252.86 135.74 M230.45 163.14 C236.66 155.91, 240.86 149.18, 253.3 133.86 M234.43 163.25 C239.62 156.23, 245.48 152.92, 254.96 138.6 M234.37 163.41 C241.24 154.43, 249.6 146.38, 253.57 141.13 M242.3 163.18 C245.01 158.05, 247.02 152.86, 255.9 145.52 M240.14 161.95 C244.6 158.78, 246.63 154.57, 254.7 145.86 M245.82 162.33 C247.94 161.88, 249.41 158.65, 254.13 152.83 M245.38 163.56 C248.26 158.66, 252.78 155, 254.53 152.39 M250.79 162.9 C251.77 161.92, 252.17 161.29, 254.01 158.66 M251.18 162.54 C252.21 161.19, 253.47 159.47, 254.28 158.78" stroke="#ced4da" stroke-width="0.5" fill="none"/>
    <path d="M-0.74 0.22 C62.12 -1.75, 123.29 -2.85, 252.66 -1.09 M-0.28 -0.03 C72.52 -0.96, 147.16 0.13, 254.62 0.15 M255.03 1.92 C255.39 39.61, 253.92 77.45, 254.36 160.26 M254.57 -0.35 C254.56 34.5, 254.27 70.21, 254.81 160.66 M252.52 162.35 C158.34 161.59, 59.83 162.29, -1.62 162.54 M253.2 161 C190.23 158.83, 126.87 159.41, 0.75 161.41 M0.21 159.1 C0.04 120.81, -0.54 83.1, -0.42 -1.2 M0.03 160.72 C-0.28 123.99, 0.88 88.42, 0.21 -0.74" stroke="#000000" stroke-width="1" fill="none"/>
  </g>
  <g transform="translate(99.41767597789988 242.29249474129676) rotate(0 38.5 18)">
    <text x="0" y="25" font-family="Virgil, Segoe UI Emoji" font-size="28px" fill="#000000" text-anchor="start" style="white-space: pre;" direction="ltr">Klijent</text>
  </g>
  <g stroke-linecap="round">
    <g transform="translate(13.778128953926284 329.29249474129676) rotate(0 126.00100251759318 2.0646471923088257)">
      <path d="M0.17 0.88 C42 1.52, 210.03 3.2, 251.84 3.25" stroke="#000000" stroke-width="1.5" fill="none" stroke-dasharray="1.5 7"/>
    </g>
  </g>
  <g transform="translate(71.41767597789988 291.15294771732295) rotate(0 71.5 10.5)">
    <text x="0" y="15" font-family="Virgil, Segoe UI Emoji" font-size="16px" fill="#000000" text-anchor="start" style="white-space: pre;" direction="ltr">Sakupi input korisnika</text>
  </g>
  <g transform="translate(63.424755247804 342.996943326771) rotate(0 83 21)">
    <text x="0" y="15" font-family="Virgil, Segoe UI Emoji" font-size="16px" fill="#000000" text-anchor="start" style="white-space: pre;" direction="ltr">Prika&#x17E;i serverov </text>
    <text x="0" y="36" font-family="Virgil, Segoe UI Emoji" font-size="16px" fill="#000000" text-anchor="start" style="white-space: pre;" direction="ltr">trentno stanje igre</text>
  </g>
  <g stroke-linecap="round" transform="translate(16.09357148032973 443.36188103272457) rotate(0 127.00000000000006 80.5)">
    <path d="M0 0 C0 0, 0 0, 0 0 M0 0 C0 0, 0 0, 0 0 M-0.2 7.04 C1.65 4.89, 2.15 3.69, 5.41 -0.38 M-0.45 6.23 C1.34 3.92, 3.15 2.4, 4.84 0.13 M1.36 13.32 C4.67 7.11, 6.25 3.6, 9.42 1.16 M0.27 12.04 C3.7 6.72, 8.51 3.44, 10.85 -0.68 M1 17.1 C4.34 16.07, 6.89 11.42, 16.49 1.34 M-0.51 18.86 C4.75 11.37, 11.03 5.73, 14.95 0.19 M1.48 24.39 C10.1 14.03, 17.91 6.94, 21.42 -1.25 M1.15 24.95 C5.77 17.28, 10.31 12.23, 21.66 0.69 M0.08 30.76 C5.48 22.9, 11 16.05, 25 1.06 M-0.64 30.35 C8.59 21.14, 17.77 10.56, 26.38 -0.7 M-1.71 36.94 C8.57 27.54, 19.65 13.14, 32.02 1.85 M-0.73 36.61 C11.59 22.6, 23.52 9.81, 31 0.6 M-1.42 40.87 C11.57 30.93, 24.29 16.76, 36.12 0.44 M-0.11 42.27 C12.11 30.03, 23.26 15.09, 37.36 0.5 M0.98 49.52 C11.73 33.87, 25.88 18.53, 43.6 1.39 M-1.1 48.42 C15.98 30.02, 31.71 11.39, 43.31 -0.64 M2.17 55.06 C12.03 38.56, 23.8 27.29, 46.65 1.99 M-0.04 54.6 C10.58 42.1, 21.81 31.76, 48.2 -0.67 M0.69 62.42 C10.74 46.72, 23.45 32.14, 55.09 -0.24 M0.21 60.15 C20.08 37.34, 38.35 15.36, 52.85 -0.45 M0.11 65.48 C18.88 49.01, 36.26 28.96, 57.64 -0.03 M-0.34 68.16 C14.1 52.31, 27.22 35.65, 59.09 -0.57 M1.47 74.88 C14.74 55.99, 29.72 36.18, 65.66 -0.9 M-0.09 72.96 C25.99 44.25, 51.22 14.15, 63.74 -0.12 M-0.1 77.75 C14.33 62.96, 30.39 43.71, 70.4 0.39 M-1.05 79.66 C23.19 53.74, 45.75 26.8, 68.11 0.57 M-0.37 85.93 C28.56 54.74, 54.42 24.41, 74.74 1.29 M0.54 84.12 C26.75 54.22, 54.39 24.22, 73.99 -0.81 M-0.7 91.52 C33.24 55.73, 62.1 19.77, 78.46 1.02 M-0.33 92.21 C24.18 61.7, 50.24 33, 79.19 0.67 M-0.95 99.08 C29.78 63.16, 57.76 30.79, 85.99 -0.02 M-0.09 97.79 C29.95 63.29, 60.11 26.92, 85.49 0.44 M1 105.41 C36.03 63.91, 71.69 20.47, 91.64 -0.65 M0.2 104.25 C35.29 62, 71.84 21.88, 90.16 -0.27 M1.85 111.32 C32.27 71.48, 71.01 28.44, 95.36 0.54 M-0.36 109.98 C29 76.5, 58.16 43.06, 95.98 -1.27 M-0.08 113.83 C37.99 72.32, 79.19 26.31, 99.99 0.67 M0.8 116.38 C39.39 71.07, 78.19 26.34, 100.71 -0.08 M0.42 121.69 C39.85 73.8, 80.47 27.63, 107.01 0.11 M-0.73 121.1 C34.99 81.1, 69.69 40.95, 107.1 -0.73 M-1.43 127.65 C35.23 87.36, 68.7 50.66, 109.8 1.98 M-1.05 128.06 C36.91 86.57, 72.77 45.81, 110.41 -0.49 M0.07 132.18 C36.61 91.73, 72.68 50.66, 116.71 0.34 M0.87 134.93 C43.31 84.93, 87.15 33.1, 115.71 0.14 M1.69 139.26 C38.13 96.14, 74.39 56.83, 123.62 0.03 M-0.05 140.63 C31.76 103.04, 62.8 68, 122.7 0.9 M-1.66 144.57 C36.76 102.69, 74.24 58.46, 126.46 0.36 M0.38 145.35 C50.23 87.78, 99.66 30.21, 126.48 1.3 M0.28 151.19 C35.83 110.17, 71.28 69.69, 132.3 -0.59 M-0.85 151.86 C30.4 117.17, 60.55 79.9, 132.86 0.54 M0.31 157.31 C32.74 121.21, 65.43 85.13, 136.63 1.18 M-0.95 159.12 C46.96 101.68, 94.59 47.85, 137.97 1.01 M-0.1 162.9 C47.12 111.06, 91.17 58.08, 142.83 0.15 M1.31 163.12 C50.89 106.11, 98.94 50.29, 142.32 -0.63 M8.57 161.42 C39.7 123.84, 75.33 82.23, 148.07 -0.59 M6.87 162.68 C36.14 127.52, 66.84 91.31, 147.56 1.12 M11.84 162.88 C64.46 102.61, 115.69 44.07, 154.38 -1.27 M12.18 162.84 C49.01 121.23, 85.4 79.49, 153.69 -0.25 M17.3 163.22 C74.26 95.93, 129.86 32.59, 158.54 -1.51 M17.08 161.64 C73.08 99.47, 127.14 36.98, 157.95 -0.34 M23.8 162.5 C58.93 119.95, 96.67 75.41, 163.06 -1.56 M22.16 162.76 C63 117.61, 102.18 72.86, 164.28 0.7 M28.93 163.64 C81.85 103.17, 135.05 39.32, 169.53 1.57 M27.67 161.87 C65.58 118.58, 103.46 75.55, 169.91 0.07 M32.88 162.31 C78.25 111.77, 122.1 63.56, 175.69 -1.14 M34.2 162.43 C76.35 111.08, 119.71 62.12, 174.81 -0.39 M38.93 163.15 C74.92 119.46, 110.84 79.74, 179.23 1.13 M39.8 162.08 C76.7 120.52, 115.52 76.42, 180.59 0.69 M43.38 162.66 C93.38 108.97, 141.22 51.94, 185.32 -0.66 M44.15 163.23 C81.38 117.14, 120.72 73.15, 185.89 -0.75 M49.96 161.97 C87.42 121.55, 125.07 75.63, 189.52 -0.09 M49.25 162.85 C79.3 127.13, 111.66 92.17, 190.55 -0.05 M56.32 163.66 C82.72 128.39, 112.45 96.41, 195.72 -0.98 M54.76 163.15 C97.09 114.09, 141.26 63.49, 196.27 -1.02 M61.42 163.6 C98.83 119.73, 133 80.71, 202.54 0.43 M60.47 163.1 C109.04 104.13, 159.51 45.39, 201.99 -0.1 M65.97 161.73 C114.95 106.04, 160.75 51.77, 207.35 0.31 M65.15 162.07 C114.9 104.83, 164.98 47.56, 206.33 0.02 M69.4 160.85 C107.94 122.19, 142.57 81.19, 213.63 1.51 M70.77 161.87 C118.82 108.36, 166.29 52.05, 211.73 -0.8 M77.27 163.52 C129.68 103.3, 177.36 44.64, 217.44 -1.59 M76.1 163.43 C128.04 102.81, 180.84 43.09, 218.1 0.21 M80.73 163.78 C120.32 119.11, 156.29 78.81, 221.85 1.73 M80.88 161.8 C115.2 125.41, 145.8 88.26, 221.74 0.1 M84.93 161.53 C125.62 118.36, 164.02 75.25, 226.89 -1.19 M86.51 162.07 C133.81 108.49, 181.92 52.75, 228.25 -0.76 M91.97 161.26 C133.48 114.19, 173.85 66.34, 233.47 -0.54 M91.4 162.16 C134.74 113.07, 177.12 64.31, 233.9 -0.27 M97.84 161.97 C137.09 116.49, 174 73.58, 239.68 0.5 M96.93 163.43 C129.62 126.09, 161.27 89.86, 237.94 1.17 M103.36 162.9 C148.91 109.99, 193.6 58.43, 244.5 -0.15 M102.83 162.3 C137.59 121.21, 172.99 81.38, 242.96 0.57 M107.62 163.89 C156.15 105.42, 206.19 49.62, 248 0.04 M107.82 162.56 C142.22 122.48, 175.33 83, 248.42 0.91 M111.9 160.64 C164.17 105.67, 211.75 50.91, 254.65 0.83 M113.8 161.71 C165.75 101.7, 217.92 41.57, 254.07 -0.02 M120.14 162.59 C152.29 123.45, 187.56 80.53, 254.5 5.52 M117.74 163.36 C169.95 101.92, 222.98 40.4, 253.63 7.03 M124.8 164.63 C161.33 119.21, 200.62 74.58, 252.52 12.98 M124.03 162.4 C174.82 104.71, 224.77 47.03, 254.12 13.58 M127.16 163.81 C174.92 111.21, 221.86 57.69, 253.93 18.03 M128.65 162.86 C166.72 118.5, 202.47 77.01, 255.18 17.81 M133.16 164.4 C178.58 116.33, 220.02 63.99, 254.12 23.45 M134.84 162.75 C161.69 131.92, 187.69 101.77, 254.61 25.07 M139.16 161.87 C164.66 133.49, 187.55 107.65, 253.59 28.82 M138.93 163.47 C184.38 113.12, 228.13 61.41, 254.04 31.31 M145.41 162.48 C170.44 133.05, 199.13 99.3, 255.24 38.01 M143.72 163.21 C169.17 135.03, 194.22 107.27, 254.33 36.54 M151.79 162.67 C185.91 120.34, 218.86 82.84, 255.43 43.31 M150.52 162.12 C184.1 124.82, 215.92 87.24, 254.93 42.77 M155.09 164.64 C183.28 130.69, 212.21 98.3, 252.56 49.29 M154.61 163.67 C186.66 125.8, 219.83 87.69, 254.65 49.48 M160.73 163.82 C185.2 135.25, 207.51 107.54, 255.55 56.49 M161.28 161.78 C190.97 126.29, 222.64 92.02, 254.47 55.2 M164.02 164.39 C185.5 140.26, 203.62 118.59, 255 61.68 M165.32 162.17 C194.08 132.3, 221.93 100.27, 254.85 61.45 M169.9 162.73 C191.58 137.76, 212.71 112.33, 252.36 65.38 M170.98 161.54 C197.19 131.64, 222.46 102.93, 253.22 68.01 M178.23 163 C198.67 136.09, 220.64 110.71, 255.08 72.08 M175.54 162.86 C204.07 131.31, 230.46 100.87, 253.38 72.93 M183.48 160.53 C200.1 141.96, 221.18 119.28, 253.14 78 M181.25 162.6 C207.26 134.85, 232.88 104.88, 254.23 79.98 M188.03 161.46 C201.56 146.2, 218.32 124.29, 255.55 86.86 M186.85 162.01 C202.91 144.32, 218.15 125.83, 254.57 86.24 M193.9 162.11 C211.84 137.61, 233.63 115.69, 253.46 90.1 M193.59 162.31 C213.05 141.2, 231.66 117.46, 254.45 92.01 M195.98 164.55 C216.26 142.78, 236.96 120.36, 253.42 98.41 M198.69 162.02 C217.92 140.18, 239.5 115.68, 254.64 98.11 M201.82 164.1 C221.02 143.29, 241.4 122.44, 252.45 105.95 M203.38 162.13 C221.4 141.84, 238.54 122.86, 254.04 103.87 M208.87 160.78 C217.41 152.09, 225.83 139.52, 254.61 110.12 M208.38 163.41 C225.31 143.12, 241.1 125.14, 254.36 110.62 M212.19 162.88 C230.53 145.71, 246.3 128.63, 255.49 115.31 M213.88 161.64 C227.34 145.83, 241.95 130.4, 255 115.21 M217.75 162.41 C231.18 149.96, 243.75 135.56, 253.31 121.12 M219.1 162.85 C227.8 153.35, 234.77 143.49, 254.34 121.99 M226.16 162.61 C230.72 154.31, 240.19 144.91, 254.2 129.93 M224.22 162.56 C231.93 154.08, 239.38 143.76, 253.25 128.06 M229.92 161.45 C237.63 152.64, 248.06 140.06, 255.28 135.06 M229.93 163.09 C235.66 154.35, 241.89 148.72, 254.44 135.3 M236.51 163.91 C243.23 154.61, 248.45 145.05, 253.16 140.59 M234.75 163.49 C238.18 157.14, 243.48 151.96, 255.24 139.82 M240.94 161.66 C242.8 158.28, 247.6 153.69, 252.51 145.07 M239.82 163.05 C243.2 158.98, 246.7 153.65, 254.36 147.52 M245.96 161.51 C247.06 160.5, 249.88 158.72, 253.55 153.35 M245.56 162.87 C247.07 160.84, 248.75 158.76, 255.04 152.11 M250.86 162.51 C252.16 161.42, 253.36 159.77, 254.49 158.61 M251.11 162.31 C251.84 161.2, 252.85 160.25, 254.09 158.54" stroke="#ced4da" stroke-width="0.5" fill="none"/>
    <path d="M0.63 -1.37 C99.12 0.75, 198.93 -1.1, 254.23 -1.42 M0.2 0.22 C86.07 -1.86, 173.79 -1.37, 253.79 0.02 M253.74 0.38 C256.77 56.67, 253.84 110.62, 252.64 159.81 M253.68 0.93 C253.27 58.48, 254 114.34, 253.14 160.63 M252.58 160.18 C175.51 161.19, 99.37 159.71, 0.49 161.38 M254.09 160.43 C189.9 160.63, 126.44 160.38, -0.29 160.98 M0.01 161.97 C1.32 122.82, -0.35 86.47, -1 1.17 M-0.02 160.6 C-0.47 117.62, 0.58 74.14, 0.47 0.38" stroke="#000000" stroke-width="1" fill="none"/>
  </g>
  <g transform="translate(101.09357148032973 448.36188103272457) rotate(0 38.5 18)">
    <text x="0" y="25" font-family="Virgil, Segoe UI Emoji" font-size="28px" fill="#000000" text-anchor="start" style="white-space: pre;" direction="ltr">Klijent</text>
  </g>
  <g stroke-linecap="round">
    <g transform="translate(15.454024456356137 535.3618810327246) rotate(0 125.92607432926928 0.8060686057304451)">
      <path d="M-1.01 -0.36 C41.1 -0.11, 210.78 1.52, 252.87 1.97" stroke="#000000" stroke-width="1.5" fill="none" stroke-dasharray="1.5 7"/>
    </g>
  </g>
  <g transform="translate(73.09357148032973 497.22233400875075) rotate(0 71.5 10.5)">
    <text x="0" y="15" font-family="Virgil, Segoe UI Emoji" font-size="16px" fill="#000000" text-anchor="start" style="white-space: pre;" direction="ltr">Sakupi input korisnika</text>
  </g>
  <g transform="translate(65.10065075023385 549.0663296181988) rotate(0 83 21)">
    <text x="0" y="15" font-family="Virgil, Segoe UI Emoji" font-size="16px" fill="#000000" text-anchor="start" style="white-space: pre;" direction="ltr">Prika&#x17E;i serverov </text>
    <text x="0" y="36" font-family="Virgil, Segoe UI Emoji" font-size="16px" fill="#000000" text-anchor="start" style="white-space: pre;" direction="ltr">trentno stanje igre</text>
  </g>
  <g stroke-linecap="round" transform="translate(567.7231906798837 10) rotate(0 129.44612270290008 300.07964808399583)">
    <path d="M0 0 C0 0, 0 0, 0 0 M0 0 C0 0, 0 0, 0 0 M0.02 6.03 C0.3 4.06, 2.65 3.11, 5.19 -0.19 M-0.03 6.1 C1.55 4.51, 2.98 3.13, 5.12 0.47 M1.05 11.69 C4.38 8.28, 5.78 3.45, 10.57 1.53 M0.88 11.51 C3.83 7.68, 7.4 4.41, 10.72 -0.4 M0.25 19.88 C6.66 12.09, 11.2 6.18, 15.9 0.75 M0.33 17.52 C6.47 11.5, 11.83 5.17, 15.63 -0.61 M1.35 25.97 C9.85 15.21, 15.98 7.59, 23.12 1.71 M1.25 24.79 C4.11 18.8, 10.79 13.23, 21.66 0.29 M1.91 30.73 C6.42 23.88, 13.13 16.45, 25.72 1.79 M0.7 31.42 C8.34 21, 19.03 8.51, 27 1.02 M-0.21 36.52 C9.17 26.75, 16.52 17.65, 32.84 0.2 M0.64 37.13 C9.51 24.61, 20.32 11.85, 32.35 0.38 M1.84 42.92 C12.7 30.98, 23.68 18.82, 38.51 1.88 M0.91 42.67 C14.06 27.71, 26.19 12.38, 36.36 0.43 M0.47 50.51 C10.22 35.13, 19.26 26.27, 41.41 1.02 M0 49.3 C9.84 35.79, 21.23 24.25, 41.7 -0.26 M0.72 53.08 C18.36 31.46, 36.71 12.56, 46.08 0.53 M0.37 54.76 C13.41 39.08, 27.12 23.82, 46.52 0.64 M1.53 61.19 C10.75 49.13, 24.87 33.78, 54.73 -0.44 M-0.01 60.57 C12.76 48.72, 22.87 35.23, 52.48 0.46 M-1.19 66.36 C21.57 43.46, 41.45 19.87, 56.46 1.01 M-0.34 68.01 C15.64 47.92, 29.69 31.25, 58.19 0.81 M2.01 72.84 C14.67 57.58, 26.13 41.78, 63 -1.03 M-0.2 73.6 C16.29 55.19, 29.92 38.52, 63.3 0.76 M-1.39 81.38 C16.78 57.75, 33.38 40.66, 69.97 -1.69 M-0.78 78.64 C14.32 61.37, 29.86 42.97, 67.93 0.2 M1.23 85.46 C23.06 59.63, 42.2 36.81, 72.63 -1.89 M0.5 85.17 C26.31 52.98, 52.99 23.42, 74.68 -1.03 M0.89 90.79 C25.1 63.6, 48.23 37.17, 79.15 -0.79 M-0.58 91.24 C26.47 64.37, 49.63 34.25, 80.18 0.21 M-1.92 99.56 C20.03 75.35, 39 52.98, 86.31 -0.36 M0.37 96.92 C21.41 73.86, 40.41 50.87, 85.01 -0.45 M-0.69 102.22 C27.24 70.88, 57.71 35.94, 88.8 -1.79 M1.12 103.76 C26.23 74.26, 51.28 45.95, 89.26 0.38 M1.66 109.17 C26.77 77.9, 52.7 48, 94.95 -2.06 M-0.44 110.37 C33.23 74.79, 63.91 37.3, 96.52 -0.91 M-0.18 115.05 C33.74 77.25, 66.64 42.42, 99.97 1.59 M1.08 116.3 C30.51 79.25, 63.08 43.86, 101.36 0.35 M-0.62 122.27 C26.52 89.24, 51.17 59.85, 105.73 -0.86 M0.09 121.42 C33.1 82.44, 67.49 43.78, 105.36 0.31 M-0.08 129.19 C35.09 91.48, 66.84 50.14, 109.97 -0.66 M-0.71 127.83 C42.6 80.31, 84.38 31.88, 110.56 -0.1 M-0.47 133.9 C33.99 94.71, 70.27 51.91, 117.43 1.89 M0.53 133.37 C34.18 92.69, 69.2 53.23, 116.87 0.8 M-0.65 142.01 C30.72 106.8, 60.72 71.92, 120.35 1.23 M-0.45 141.17 C33.16 101.99, 67.64 63.35, 122.8 0.93 M-1.34 146.81 C29.61 112.31, 59.63 78.76, 127.03 2.31 M-0.67 145.59 C47.29 93.38, 94.67 37.74, 126.25 0.01 M0.13 152.84 C39.81 106.28, 82.86 58.07, 132.87 0.69 M-0.37 151.62 C30.41 119.06, 61.55 84.1, 131.95 -0.48 M0.79 160.1 C51.69 98.45, 105.49 36.09, 137.77 -1.25 M0.1 158.43 C32.11 120.93, 65.13 82.67, 136.71 -0.16 M1.07 164.26 C36 121.87, 71.45 79.26, 141.88 -0.68 M-0.27 163.64 C36.32 122.85, 70.7 83.35, 143.48 -0.31 M0.57 171 C45.38 115.04, 92.35 61.14, 149.66 -0.19 M0.4 170.01 C36.9 130.45, 74.26 88.21, 147.63 -0.54 M1.5 177.9 C34.23 137.2, 72.48 97.43, 153.12 1.35 M-0.03 175.94 C54.81 111.32, 111.39 48.13, 153.36 -0.21 M-1.17 182.03 C61.13 111.42, 119.62 45.28, 159.63 -0.99 M-0.19 182.65 C52.7 122.58, 104.29 63.86, 158.63 0.03 M0.35 189.32 C60.88 120.78, 120.03 51.29, 165.2 0.54 M-0.3 189.93 C37.61 147.01, 73.63 104.96, 164.56 0.15 M0.16 194.59 C47.49 139.13, 95.04 85.65, 168.39 0.24 M-0.03 194.55 C37.92 151.37, 75.61 106.92, 169.18 -0.58 M-1.25 201.74 C63.72 124.51, 132.7 50.11, 173.94 0.72 M0.1 201.62 C51.33 140.84, 104.02 81.47, 174.84 -0.41 M-0.53 206.61 C62.67 135.89, 123.67 63.95, 179.89 0.52 M0.67 207.37 C60.01 139.93, 117.19 74, 180.32 0.53 M-0.84 213.76 C71.54 132.84, 141.28 53.01, 185.04 -1.04 M0.35 212.74 C45.55 160.26, 89.6 110.1, 185.2 0.2 M0.83 219.83 C51.7 161.04, 100.74 101.88, 191.74 0.02 M-0.53 220.37 C72.65 137.41, 144.84 53.54, 191.33 -0.03 M1.5 226.24 C51.07 166.66, 102.59 108.21, 197.75 -1.6 M0.17 225.7 C68.77 146.3, 138.28 67.08, 196.42 -0.49 M1.16 230.55 C69.7 154.39, 136.23 74.78, 202.05 -1.25 M0.4 232.3 C78.26 138.58, 158.8 48.26, 201.5 0.69 M0.21 236.95 C63.76 165.75, 125.26 95.43, 205.9 -1.25 M0.69 237.03 C62.92 163.92, 128.11 90.62, 207.65 -0.3 M-1.04 243.01 C49.34 189.7, 97.63 132.52, 212.13 -0.68 M-0.55 244.23 C77.09 153.04, 155.7 63.37, 211.53 -0.26 M0.93 249.97 C80.62 156.8, 164.63 64.62, 218.05 -0.42 M-0.62 250 C53.42 188.83, 105.27 127.86, 218.09 0.02 M-0.93 254.71 C47.29 199.87, 93.46 146.68, 223.31 1.12 M0.41 256.51 C71.39 174.73, 142.67 92.83, 221.95 0.04 M0.04 261.28 C76.35 174.47, 151.24 87.22, 228.52 0.36 M-0.17 262.74 C56.63 195.32, 116.27 127.94, 228.28 -0.11 M0.62 268.45 C79.18 179.02, 155.44 91.76, 234.29 0.89 M-0.03 268.23 C63.77 193.57, 127.73 120.84, 233.12 0.3 M0.39 274.34 C53.49 211.05, 107.15 147.23, 237.06 1.21 M-0.56 274.51 C70.11 193.12, 140.12 113.6, 237.94 0.92 M-0.11 279.84 C51.72 217.86, 105.57 157.13, 244.11 0.62 M-0.48 280.69 C65.42 203.77, 130.68 128.28, 244.04 -0.5 M0.3 286.45 C73.92 204.82, 143.8 123.32, 247.87 -0.05 M0.14 286.52 C76.15 200.3, 150.58 114.2, 248.66 -0.02 M0.48 292.31 C78.93 201.54, 157.71 111.75, 254.5 -0.46 M-0.32 292.92 C92.79 188.93, 183.5 83.02, 254.95 0.4 M0.78 297.53 C87.03 200.01, 172.55 102.59, 260.55 1.27 M-0.02 298.73 C59.32 229.36, 118.91 160.39, 259.9 0.02 M-0.73 303.84 C55.62 238.69, 110.81 173.68, 258.88 5.85 M0.27 305.06 C53.61 241.68, 108.08 178.29, 258.96 6.53 M-0.03 310.29 C94 204.7, 189 95.7, 260.59 11.52 M-0.05 310.79 C66.99 233.02, 133.72 156.7, 260.12 12.81 M0.91 316.33 C88.1 216.6, 175.32 114.04, 260.36 19.22 M0.52 316.64 C76.38 226.98, 154.49 138.35, 259.78 19.15 M0.43 322.7 C99.74 208.54, 198.01 95.64, 258.61 25.15 M-0.59 323.61 C94.29 214.95, 188.48 105.87, 259.23 24.62 M0.97 329.24 C67.5 250.84, 136.15 173.92, 258.62 30.85 M0.78 328.38 C81.34 233.61, 163.06 140.88, 259.7 31.15 M0.6 334.91 C94.28 227.11, 187 117.81, 259.13 37.06 M0.31 335.84 C89.58 231.78, 180.27 127.65, 259.64 37.34 M-0.89 342.59 C95.12 234.23, 188.91 126.78, 260.35 41.68 M-0.51 341.85 C93.7 234.49, 186.86 126.34, 259.79 43.08 M-0.29 348.41 C74.35 260.64, 148.17 176.22, 260.21 48.89 M0.57 347.75 C59.81 281.28, 116.92 214.62, 259.45 49.43 M-0.61 354.03 C52.35 293.1, 104.73 232.12, 257.98 55.57 M0.45 354.12 C90.12 248.88, 180.84 144.27, 259.26 55.18 M-0.55 359.98 C77.43 270.4, 156.42 180.57, 258.44 61.34 M0.32 359.67 C51.31 300.06, 103.15 239.27, 259.62 60.98 M-0.53 365.61 C89.59 266.05, 176.46 165.64, 259.8 67.06 M-0.34 365.73 C54.65 301.11, 109.74 237.01, 259.2 67.77 M-1.3 371.6 C91.18 267.35, 181.97 162.54, 259.74 72.71 M0.14 371.63 C82.11 276.25, 165.84 180.08, 259.92 73.3 M0.1 378.48 C77.34 289.53, 153.74 199.25, 258.5 79.71 M0.62 377.71 C75.81 292.71, 151 205.69, 259.84 80.09 M0.71 385.15 C94.1 273.93, 190.93 165.45, 258.02 86.49 M0.2 383.73 C57.36 316.19, 117.73 246.8, 259.36 86.23 M-0.13 389.06 C55.68 326.66, 112.84 260.75, 259.08 91.6 M-0.16 390 C85.67 289.93, 171.32 191.01, 259.66 91.83 M0.07 395.43 C68.81 312.69, 142.47 232.62, 258.5 99.16 M-0.23 396.14 C100.21 281.25, 200.25 167.44, 258.87 98.55 M-0.84 403.58 C52.84 340.61, 105.93 281.48, 259.77 102.94 M0 402.22 C77.94 312.1, 156.57 222.01, 259.38 103.89 M1.32 407.82 C98 294.68, 197.65 181.36, 259.99 109.33 M-0.14 408.34 C66.44 331.9, 131.84 256.4, 259.62 110.24 M0.45 414.34 C94.03 307.88, 187.52 201.35, 258.28 116.86 M-0.05 414.1 C99.26 300.67, 197.54 187.44, 259 116.87 M-0.69 421.45 C96.26 309.2, 191.14 198.48, 259.78 121.6 M-0.4 420.62 C83.24 323.48, 168.62 225.24, 259.93 121.76 M-0.18 427.29 C98.62 315.81, 195.63 204.58, 259.05 129.5 M-0.07 426.55 C95.2 320.5, 188.21 212.47, 259.27 129.17 M0.2 433.01 C87.7 332.56, 176.01 231.7, 259.91 133.55 M0.02 433.4 C78.63 345.59, 155.9 256.45, 259.19 134.75 M1.03 438.27 C83.02 344.38, 165.17 248.56, 260.09 141.39 M0.77 438.65 C60.75 367.87, 121.58 296.96, 258.87 140.36 M-0.88 445.92 C88.36 344.18, 176.22 241.74, 259.61 147.93 M0.11 444.83 C72.48 362.35, 144 280.02, 259.52 147.14 M0.44 450.62 C67.94 374.76, 134.77 295.23, 260.2 152.2 M-0.87 451.46 C58.31 383.06, 118.16 314.14, 259.39 152.81 M1.2 458.1 C63.52 385.69, 128.62 312.24, 260.22 158.22 M0.59 456.96 C98.15 344.78, 196.81 232.25, 259.17 159.21 M-1.19 462.98 C64.29 387.92, 127.14 315.28, 260.64 163.71 M-0.7 463.84 C94.34 352.48, 190.05 243.17, 260.06 164.33 M0.22 469.63 C72.5 381.69, 147.8 297.28, 258.96 171.51 M-0.19 469.63 C88.18 365.59, 177.59 262.63, 258.97 171.3 M-0.32 476.11 C82.59 380.3, 166.36 284.36, 259.84 178.34 M0.08 475.85 C75.26 391.08, 150.02 306.11, 259.34 177.01 M-1.36 481.21 C78.82 389.94, 159.85 297.42, 258.46 182.48 M-0.01 482.35 C80.73 386.78, 163.66 291.16, 259.18 183.07 M0.51 487.59 C76.94 397.82, 156.11 308.99, 258.36 189.2 M-0.27 487.99 C62.15 414.43, 125.06 342.16, 258.78 189.63 M-1.27 493.41 C82.16 400.88, 163.57 304.46, 259.15 194.87 M-0.5 493.6 C67.97 416.18, 135.95 339.17, 259.97 195.4 M1.16 499.42 C51.72 436.35, 105.38 376.5, 259.51 200.72 M-0.14 499.72 C77.13 411.59, 154.94 323.06, 259.01 202.11 M0.96 506.64 C85.33 409.89, 169.45 311.56, 258.7 208.44 M0.42 506.47 C85.61 406.86, 173.4 305.77, 259.65 207.68 M-1.28 511.94 C59.49 441.57, 120.23 372.41, 260.53 214.12 M0.21 512.44 C85.65 415, 172.34 315.93, 258.96 213.73 M-0.34 518.09 C87.76 420.11, 174.95 320.55, 259.16 220.55 M-0.34 517.64 C85.9 418.78, 173.59 319.13, 259.58 220.58 M-0.73 525.36 C99.28 412.47, 195.45 301.57, 258.8 225.9 M0.13 524.23 C60.1 455.5, 120.54 385.61, 259.79 226.11 M0.84 529.43 C83.81 436.91, 164 342.22, 258.47 232.95 M-0.18 530.76 C66.71 453.53, 133.15 378.26, 259.06 232.5 M0.17 537.45 C50.85 475.68, 104.18 414.95, 258.05 237.74 M0.37 536.65 C78.61 445.28, 157.31 354.59, 259.61 238.26 M0.77 542.94 C60.81 469.72, 124.38 397.06, 259.97 244.22 M-0.7 543.39 C78.54 455.1, 155.62 366.49, 259.14 244.61 M-0.42 549.63 C73.01 466.09, 146.24 383.28, 259.57 251.24 M-0.05 548.28 C67.94 471.21, 136.85 391.63, 259.6 250.45 M0.16 556.16 C72.13 475.01, 141.98 392.61, 260.24 255.08 M-0.43 555.51 C76.41 468.68, 151.49 382.29, 259.64 255.83 M0.4 560.9 C93.67 453.78, 188.3 346.47, 260.49 263.2 M0.13 561.21 C60.34 488.82, 121.9 418.55, 258.9 262.97 M0.17 566.5 C91.38 464.73, 179.6 361.85, 259.94 269.17 M0.04 567.14 C70.14 487.42, 138.12 409.4, 259.65 269.38 M0.43 573.19 C98.28 460.52, 196.78 346.53, 258.77 274.14 M-0.84 573.78 C92.32 466.6, 185.39 359.06, 259.51 274.3 M0.47 579.62 C50.72 517.58, 103.94 458.2, 259.54 280.81 M-0.43 578.76 C69.38 498.76, 138.56 420.56, 259.03 280.54 M-0.42 585.98 C70.09 507.51, 136.45 429.61, 259.39 286.71 M-0.55 585.56 C101.37 466.82, 203.56 350.4, 259.93 286.44 M0.87 591.88 C93.76 486.43, 185.19 379.69, 260.02 293.36 M0.39 590.92 C91.17 485.84, 183.64 379.97, 259.03 292.65 M0.51 598.62 C81.25 500.49, 164.48 405.31, 259.93 299.6 M0.26 597.33 C76.37 509.1, 152.63 421.07, 259.08 299.88 M2.66 602.56 C82.14 509.62, 162.74 418.83, 258.5 304.66 M1.37 601.59 C54.67 541.6, 106.96 481.87, 259.17 304.95 M7.03 601.21 C71.76 525.18, 136.12 450.26, 260.1 311.36 M7.47 600.85 C68.08 530.67, 129.15 459.75, 258.91 311.84 M11.43 600.91 C102.58 497.17, 193.26 391.98, 259.2 317.03 M12.48 601.25 C82.42 518.95, 154.87 436.37, 260.1 316.71 M18.24 601.92 C106.71 498.23, 196.5 398.31, 260.04 322.66 M17.38 601.58 C75.02 535.99, 131.19 471.07, 259.37 324.11 M23.02 602.85 C69.19 547.11, 116.84 490.56, 258.91 328.67 M23.09 601.24 C98.13 513.56, 173.24 427.85, 259.35 330.46 M28.94 601.07 C100.43 518.88, 171.99 437.65, 260.78 335.75 M27.69 602.07 C89.85 533, 150.14 462.35, 259.83 335.44 M32.96 601.35 C98.66 525.71, 162.45 453.13, 258.78 342.83 M34.04 601.27 C120.87 500.45, 209.18 399.86, 258.64 341.57 M37.5 602.35 C120.31 508.54, 202.38 416.43, 258.34 347.78 M38.57 602.15 C116.58 514.69, 193.38 426.14, 259.44 347.09 M44.44 601.73 C103.72 531.55, 165.14 461.87, 258.12 354.69 M44.86 601.05 C95.39 543.17, 145.7 486.34, 259.08 354.09 M48.59 600.61 C128.26 512.94, 205.55 423.04, 258.8 361.56 M49.55 602.23 C115.17 524.2, 182.48 446.4, 259.28 360.01 M55.62 601.49 C102.52 548.21, 148.58 494.05, 259.94 366.1 M54.9 601.79 C132.54 513.4, 210.09 424.22, 259.8 366.26 M59.12 601.3 C134.31 517.65, 208.04 431.94, 259.85 371.98 M59.96 601.4 C103.02 552.66, 145.5 503.83, 259.69 373.02 M64.56 600.44 C133.32 521.19, 201.95 441.53, 259.02 379.06 M64.84 601.97 C137.5 518.86, 208.33 435.74, 259.67 377.58 M71.69 601.52 C144.55 516.66, 219.79 428.38, 259.82 384.49 M70.43 601.76 C125.34 541.57, 177.28 479.13, 258.78 384.29 M75.35 601.31 C130.03 543.18, 182.15 481.07, 258.05 390.28 M75.33 601.52 C143.55 523.43, 211.68 445.54, 259.71 391.42 M80.13 600.83 C125.01 551.25, 168.61 498.39, 260.87 398.07 M81.62 601.12 C151.68 521.12, 222.14 440.41, 259.72 397.19 M86.57 600.62 C126.37 555.99, 164.1 511.48, 259.27 402.96 M87.03 602.02 C146.1 533.5, 206.24 463.21, 259.91 403.01 M90.49 601.76 C149.01 537.58, 205.26 471.47, 259.23 408.1 M90.93 601.9 C127.08 558.21, 165 516.32, 259.6 409.27 M96.75 600.81 C156.99 532.46, 215.24 463.51, 259.96 416.46 M97.32 602.11 C145.33 546.93, 191.29 493.24, 259.59 414.41 M103.23 600.33 C141.66 558.34, 177.98 513.22, 260.16 419.88 M101.99 602 C142.8 555.92, 184.32 508.87, 259.31 421.88 M107.85 601.01 C152.47 548.94, 198.44 496.56, 257.98 425.57 M108.16 602.01 C168.15 533.28, 226.17 465.77, 260.35 427.2 M112.16 602.13 C164.43 544.99, 214.6 484.45, 258.11 433.41 M113.62 602.53 C145.03 566.03, 174.49 529.75, 260.12 432.6 M118.8 600.02 C169.75 540.04, 224.82 477.26, 258.16 438.17 M118.19 602.14 C156.7 558.08, 191.04 516.45, 260.4 439.79 M124.74 602.57 C152.5 568.03, 179.82 534.45, 259.13 443.82 M124.39 601.35 C175.23 541.47, 227.34 480.74, 259.41 444.82 M128.54 599.75 C178.01 545.87, 228.87 487.56, 258.19 453.01 M129.39 601.21 C169.76 556.4, 208.16 509.9, 258.69 451.2 M135.01 599.8 C181.97 543.19, 232.08 487.08, 260.06 459.34 M134.4 601.63 C174.75 556.1, 214.35 511.46, 260.45 458 M139.49 603.57 C168.79 568.27, 192.89 536.9, 258.06 465.71 M139.44 602.47 C186.44 547.36, 231.74 493.67, 259.93 463.89 M143.71 603.54 C169.54 573.46, 193.16 543.43, 261.22 469.46 M145.53 601.4 C184.17 556.45, 222.61 511.82, 258.87 469.59 M148.42 603.67 C179.31 569.89, 208.84 537.22, 259.45 477.66 M149.6 601.37 C186.63 559.89, 223.06 516.71, 259.01 475.13 M156.53 599.67 C177.98 577.41, 197.75 554.02, 258.62 483.37 M155.82 602.53 C175.55 576.55, 199.05 550.22, 259.4 481.74 M162.34 602.46 C180.73 575.84, 204.78 551.75, 261.15 489.38 M161.1 601.61 C179.59 579.09, 201.38 555.61, 259.24 487.44 M167.29 601.7 C192.93 568.51, 220.47 539.35, 258.48 495.96 M167.09 601.04 C192.74 571.41, 220.63 539.66, 258.61 494.52 M169.19 601.31 C204.83 563.77, 236.97 527.13, 258.22 501.11 M171.69 602.3 C195.48 572.85, 220.97 545.21, 259.83 499.48 M178.01 602.9 C207.46 567.6, 237.65 532.7, 261.33 508.1 M177.04 601.08 C207.47 566.54, 235.62 531.92, 258.97 506.39 M181.13 601.36 C199.05 581.14, 216.83 559.82, 257.3 513.64 M181 602.63 C198.66 581.51, 216.91 560.8, 259.19 512.78 M187.02 600.27 C208.46 573.81, 230.87 549.62, 260.59 519.69 M187.22 600.92 C202.75 585.04, 218.03 566.32, 259.49 519.2 M190.59 603.5 C210.72 577.46, 232.12 554.6, 259.25 525.21 M192.55 601.96 C216.54 572.16, 242.35 545.11, 259.56 524.72 M196.86 602.59 C209.61 586.94, 224.75 571.7, 257.95 530.37 M197.09 600.97 C213.65 583.55, 228.53 566.11, 259.05 530.9 M202.25 600.36 C215.69 589.28, 228.16 572.27, 259.23 536.09 M203.7 601.73 C225 576.24, 246.76 550.37, 259.12 537.08 M210.32 602.35 C224.19 582.89, 241.75 565.46, 258.65 544.27 M207.96 601.75 C221.52 585.4, 236.91 569.49, 259.75 542.35 M213.03 600.33 C224.83 586.81, 238.41 576.02, 261.28 549.54 M213.72 601.55 C222.93 590.13, 232.75 578.22, 258.55 549.03 M218.47 599.82 C231.66 586.88, 243.15 571.37, 258.21 555.02 M219.03 601.91 C231.98 586.6, 246.15 571.89, 259.53 556.23 M224.11 603.56 C234.27 591.19, 240.2 581.15, 257.7 560.57 M223.73 601.12 C237.3 585.67, 252.03 569.03, 260.43 561.82 M228.59 603.02 C241.82 587.72, 252.28 573.02, 258.38 566.27 M229.37 602.23 C236.37 592.14, 243.76 583.98, 260.24 567.66 M232.92 601.92 C242.2 596.53, 247.98 587.27, 260.38 572.7 M234.75 602.28 C242 595.07, 247.06 587.54, 258.54 573.62 M240.25 599.7 C246.27 591.94, 256.55 584.15, 257.84 580.65 M239.91 601.6 C245.57 595.18, 251.52 589.66, 260.27 579.09 M245.13 603.05 C250.08 596.61, 250.39 594.81, 259.45 586.93 M245.65 601 C251.49 596.72, 256.21 590.48, 258.51 586.45 M249.16 602.09 C252.71 599.47, 256.4 594.07, 259.57 592.22 M250.73 601.87 C253.8 598.99, 255.31 595.06, 259.8 591.2 M255.77 601.79 C256.95 600.38, 257.42 599.81, 259.38 597.95 M255.9 601.55 C257.12 600.71, 257.86 599.21, 259.53 598.05" stroke="#7950f2" stroke-width="0.5" fill="none"/>
    <path d="M1.39 1.41 C79.61 -3.16, 158.68 -1.52, 258.97 -1.17 M-0.27 0.15 C88.14 1.8, 176.13 0.74, 258.33 -0.63 M258.27 -0.43 C257.09 235.12, 257.89 470.38, 258.19 600.4 M258.57 0.38 C260.67 230.94, 260.84 461.53, 258.76 600.29 M260.01 600.86 C204.44 600.42, 148.34 601.19, -1.52 599.03 M258.92 600.3 C188.8 599.72, 119.26 600.2, 0.61 600.66 M-0.52 600.18 C0.17 364.65, 1.24 129.8, 0.34 0.04 M-0.24 600.26 C-1.9 448.03, -1.91 295.27, 0.24 -0.17" stroke="#000000" stroke-width="1" fill="none"/>
  </g>
  <g transform="translate(652.7130692221918 15.920585487337348) rotate(0 43.5 18)">
    <text x="0" y="25" font-family="Virgil, Segoe UI Emoji" font-size="28px" fill="#000000" text-anchor="start" style="white-space: pre;" direction="ltr">Server</text>
  </g>
  <g stroke-linecap="round">
    <g transform="translate(266.9897742994086 64.91653690426068) rotate(0 148.26207905975753 3.188221743977806)">
      <path d="M-0.44 1.14 C49.21 1.93, 247.41 4.84, 296.96 5.68 M1.53 0.7 C51.11 1.03, 246.99 3.19, 296.09 3.79" stroke="#000000" stroke-width="1" fill="none"/>
    </g>
    <g transform="translate(266.9897742994086 64.91653690426068) rotate(0 148.26207905975753 3.188221743977806)">
      <path d="M269.69 13.98 C274.83 11.7, 282.01 8.83, 295.57 5.29 M268.48 14.66 C276.87 11.33, 288.28 5.91, 296.85 4.52" stroke="#000000" stroke-width="1" fill="none"/>
    </g>
    <g transform="translate(266.9897742994086 64.91653690426068) rotate(0 148.26207905975753 3.188221743977806)">
      <path d="M269.93 -6.54 C275.18 -4.2, 282.3 -2.44, 295.57 5.29 M268.71 -5.86 C277.06 -2.02, 288.38 -0.27, 296.85 4.52" stroke="#000000" stroke-width="1" fill="none"/>
    </g>
  </g>
  <g stroke-linecap="round">
    <g transform="translate(269.6048474853259 305.5032700086408) rotate(0 148.74467562167536 -102.5771698603433)">
      <path d="M0.79 0.99 C49.88 -33.35, 246.25 -171.77, 295.64 -206.14 M-0.26 0.46 C49.09 -33.74, 248.27 -171, 297.74 -205.05" stroke="#000000" stroke-width="1" fill="none"/>
    </g>
    <g transform="translate(269.6048474853259 305.5032700086408) rotate(0 148.74467562167536 -102.5771698603433)">
      <path d="M281.99 -182.56 C285.76 -189.71, 294.11 -198.64, 296.01 -205.5 M280.75 -180.52 C284.71 -187.96, 290.19 -195.71, 297.11 -205.48" stroke="#000000" stroke-width="1" fill="none"/>
    </g>
    <g transform="translate(269.6048474853259 305.5032700086408) rotate(0 148.74467562167536 -102.5771698603433)">
      <path d="M270.35 -199.46 C278.66 -200.06, 291.57 -202.38, 296.01 -205.5 M269.11 -197.42 C276.72 -199.76, 285.71 -202.44, 297.11 -205.48" stroke="#000000" stroke-width="1" fill="none"/>
    </g>
  </g>
  <g stroke-linecap="round">
    <g transform="translate(272.219920671243 506.8639053242632) rotate(0 147.37448853108202 -181.78071383964624)">
      <path d="M-0.35 -0.91 C48.31 -61.63, 243.99 -303.97, 293.01 -364.79 M1.66 1.23 C50.58 -59.25, 246.58 -302.2, 295.1 -363.25" stroke="#000000" stroke-width="1" fill="none"/>
    </g>
    <g transform="translate(272.219920671243 506.8639053242632) rotate(0 147.37448853108202 -181.78071383964624)">
      <path d="M283.96 -336.81 C289.33 -346.58, 291.31 -356.31, 293.17 -364.58 M286.09 -335.05 C287.37 -341.65, 289.88 -349.81, 294.31 -364.05" stroke="#000000" stroke-width="1" fill="none"/>
    </g>
    <g transform="translate(272.219920671243 506.8639053242632) rotate(0 147.37448853108202 -181.78071383964624)">
      <path d="M267.95 -349.65 C279.5 -354.38, 287.7 -359.12, 293.17 -364.58 M270.08 -347.88 C275.69 -351.17, 282.48 -355.9, 294.31 -364.05" stroke="#000000" stroke-width="1" fill="none"/>
    </g>
  </g>
  <g transform="translate(606.9492884686412 80.95219557751528) rotate(0 89.5 21)">
    <text x="89.5" y="15" font-family="Virgil, Segoe UI Emoji" font-size="16px" fill="#000000" text-anchor="middle" style="white-space: pre;" direction="ltr">Sakupi komande od</text>
    <text x="89.5" y="36" font-family="Virgil, Segoe UI Emoji" font-size="16px" fill="#000000" text-anchor="middle" style="white-space: pre;" direction="ltr">klijenti</text>
  </g>
  <g stroke-linecap="round">
    <g transform="translate(688.0165572320738 132.90843973810723) rotate(0 0.8472445016046777 57.49904908303583)">
      <path d="M1.18 -1.13 C1.54 18.16, 1.25 96.59, 0.97 116.13 M0.35 0.88 C0.73 19.83, 0.84 95.66, 0.53 114.57" stroke="#000000" stroke-width="1" fill="none"/>
    </g>
    <g transform="translate(688.0165572320738 132.90843973810723) rotate(0 0.8472445016046777 57.49904908303583)">
      <path d="M-11.46 87.94 C-5.63 91.21, -3.56 96.17, 1.06 115.37 M-10.16 85.72 C-6.58 95.37, -2.98 103.57, 0.91 115.13" stroke="#000000" stroke-width="1" fill="none"/>
    </g>
    <g transform="translate(688.0165572320738 132.90843973810723) rotate(0 0.8472445016046777 57.49904908303583)">
      <path d="M9.06 88.06 C10.69 91.5, 8.56 96.44, 1.06 115.37 M10.36 85.84 C7.6 95.27, 4.85 103.43, 0.91 115.13" stroke="#000000" stroke-width="1" fill="none"/>
    </g>
  </g>
  <g transform="translate(589.9391670109495 257.4696356269245) rotate(0 102 52)">
    <text x="102" y="14.8" font-family="Virgil, Segoe UI Emoji" font-size="16px" fill="#000000" text-anchor="middle" style="white-space: pre;" direction="ltr">Pokreni logiku igre:</text>
    <text x="102" y="35.6" font-family="Virgil, Segoe UI Emoji" font-size="16px" fill="#000000" text-anchor="middle" style="white-space: pre;" direction="ltr">- Procesuj unos korisnika</text>
    <text x="102" y="56.400000000000006" font-family="Virgil, Segoe UI Emoji" font-size="16px" fill="#000000" text-anchor="middle" style="white-space: pre;" direction="ltr">- Pokreni pona&#x161;anje objekta</text>
    <text x="102" y="77.2" font-family="Virgil, Segoe UI Emoji" font-size="16px" fill="#000000" text-anchor="middle" style="white-space: pre;" direction="ltr">- Pokreni sistem igrice</text>
    <text x="102" y="98" font-family="Virgil, Segoe UI Emoji" font-size="16px" fill="#000000" text-anchor="middle" style="white-space: pre;" direction="ltr">(priner: tajmeri, health, i dalje)</text>
  </g>
  <g stroke-linecap="round">
    <g transform="translate(688.0165572320738 374.8027094354461) rotate(0 0.29017529289990307 51.841403916924094)">
      <path d="M0.9 -0.18 C0.86 17.47, -0.6 87.69, -0.86 105 M-0.09 -1.32 C0.31 16.04, 1.68 85.45, 1.4 103.09" stroke="#000000" stroke-width="1" fill="none"/>
    </g>
    <g transform="translate(688.0165572320738 374.8027094354461) rotate(0 0.29017529289990307 51.841403916924094)">
      <path d="M-9.29 73.52 C-5.98 80.69, -5.63 90.46, 2.82 104.45 M-8.16 74.36 C-6.51 84.85, -2.02 92.52, 1.76 102.39" stroke="#000000" stroke-width="1" fill="none"/>
    </g>
    <g transform="translate(688.0165572320738 374.8027094354461) rotate(0 0.29017529289990307 51.841403916924094)">
      <path d="M11.23 73.42 C9.5 80.77, 4.81 90.56, 2.82 104.45 M12.37 74.27 C7.24 84.92, 4.97 92.63, 1.76 102.39" stroke="#000000" stroke-width="1" fill="none"/>
    </g>
  </g>
  <g transform="translate(590.9391670109495 488.9036125805944) rotate(0 101 21)">
    <text x="101" y="15" font-family="Virgil, Segoe UI Emoji" font-size="16px" fill="#000000" text-anchor="middle" style="white-space: pre;" direction="ltr">Po&#x161;alji novo stanje igre</text>
    <text x="101" y="36" font-family="Virgil, Segoe UI Emoji" font-size="16px" fill="#000000" text-anchor="middle" style="white-space: pre;" direction="ltr"> svim klajentima</text>
  </g>
  <g stroke-linecap="round">
    <g transform="translate(566.415654086925 506.8639053242632) rotate(0 -149.75773398987133 -183.36037584339633)">
      <path d="M-0.24 -0.08 C-49.99 -61.35, -249.8 -305.68, -299.28 -366.64 M-1.82 -1.16 C-51.16 -61.76, -247.93 -304.84, -297.17 -365.38" stroke="#000000" stroke-width="1" fill="none"/>
    </g>
    <g transform="translate(566.415654086925 506.8639053242632) rotate(0 -149.75773398987133 -183.36037584339633)">
      <path d="M-271.57 -351.89 C-278.58 -351.95, -283.4 -358.22, -295.61 -365.09 M-271.19 -350.59 C-280.26 -355.74, -288.85 -359.46, -296.82 -366" stroke="#000000" stroke-width="1" fill="none"/>
    </g>
    <g transform="translate(566.415654086925 506.8639053242632) rotate(0 -149.75773398987133 -183.36037584339633)">
      <path d="M-287.51 -338.96 C-290.84 -342.06, -291.86 -351.41, -295.61 -365.09 M-287.13 -337.66 C-291.03 -347.01, -294.37 -354.99, -296.82 -366" stroke="#000000" stroke-width="1" fill="none"/>
    </g>
  </g>
  <g stroke-linecap="round">
    <g transform="translate(565.1081174939665 516.0166614749733) rotate(0 -148.23764881658468 -79.53246398665573)">
      <path d="M-0.97 -0.76 C-50.36 -27.35, -247.09 -132.18, -295.99 -158.79 M0.72 1.46 C-48.91 -25.54, -247.98 -133.68, -297.19 -160.52" stroke="#000000" stroke-width="1" fill="none"/>
    </g>
    <g transform="translate(565.1081174939665 516.0166614749733) rotate(0 -148.23764881658468 -79.53246398665573)">
      <path d="M-268.79 -156.87 C-276.12 -155.94, -288.63 -161.12, -296.1 -159.2 M-267.51 -156.58 C-277.06 -156.26, -284.2 -158.15, -296.75 -160.53" stroke="#000000" stroke-width="1" fill="none"/>
    </g>
    <g transform="translate(565.1081174939665 516.0166614749733) rotate(0 -148.23764881658468 -79.53246398665573)">
      <path d="M-278.6 -138.85 C-282.81 -143.78, -292.08 -154.91, -296.1 -159.2 M-277.32 -138.56 C-283.92 -143.5, -288.22 -150.6, -296.75 -160.53" stroke="#000000" stroke-width="1" fill="none"/>
    </g>
  </g>
  <g stroke-linecap="round">
    <g transform="translate(563.800580901008 527.7844908116006) rotate(0 -144.54749427762908 20.328030341478552)">
      <path d="M-0.77 -0.67 C-48.94 6.41, -241.32 34.35, -289.55 41.32 M1.02 1.6 C-47.19 8.44, -241.47 33.36, -290.12 39.61" stroke="#000000" stroke-width="1" fill="none"/>
    </g>
    <g transform="translate(563.800580901008 527.7844908116006) rotate(0 -144.54749427762908 20.328030341478552)">
      <path d="M-264.58 27.05 C-269.09 29.38, -276.15 31.27, -291.34 39.58 M-263.83 25.76 C-272.4 30.96, -281.34 35.13, -290.78 38.85" stroke="#000000" stroke-width="1" fill="none"/>
    </g>
    <g transform="translate(563.800580901008 527.7844908116006) rotate(0 -144.54749427762908 20.328030341478552)">
      <path d="M-261.96 47.4 C-266.94 44.52, -274.67 41.21, -291.34 39.58 M-261.21 46.12 C-270.68 44.54, -280.49 41.95, -290.78 38.85" stroke="#000000" stroke-width="1" fill="none"/>
    </g>
  </g>
</svg>
