<?xml version="1.0" encoding="UTF-8" standalone="no"?>
<!-- Created with Inkscape (http://www.inkscape.org/) -->

<svg
   width="372.6806mm"
   height="188.53734mm"
   viewBox="0 0 372.6806 188.53734"
   version="1.1"
   id="svg4025"
   inkscape:version="1.1 (c68e22c387, 2021-05-23)"
   sodipodi:docname="Banner-Pattern-1 - Copie.svg"
   xmlns:inkscape="http://www.inkscape.org/namespaces/inkscape"
   xmlns:sodipodi="http://sodipodi.sourceforge.net/DTD/sodipodi-0.dtd"
   xmlns="http://www.w3.org/2000/svg"
   xmlns:svg="http://www.w3.org/2000/svg"
   xmlns:rdf="http://www.w3.org/1999/02/22-rdf-syntax-ns#"
   xmlns:cc="http://creativecommons.org/ns#"
   xmlns:dc="http://purl.org/dc/elements/1.1/">
  <defs
     id="defs4019" />
  <sodipodi:namedview
     id="base"
     pagecolor="#ffffff"
     bordercolor="#666666"
     borderopacity="1.0"
     inkscape:pageopacity="0.0"
     inkscape:pageshadow="2"
     inkscape:zoom="0.35"
     inkscape:cx="224.28571"
     inkscape:cy="227.14286"
     inkscape:document-units="mm"
     inkscape:current-layer="layer1"
     showgrid="false"
     inkscape:window-width="1920"
     inkscape:window-height="1001"
     inkscape:window-x="-9"
     inkscape:window-y="-9"
     inkscape:window-maximized="1"
     inkscape:pagecheckerboard="0" />
  <metadata
     id="metadata4022">
    <rdf:RDF>
      <cc:Work
         rdf:about="">
        <dc:format>image/svg+xml</dc:format>
        <dc:type
           rdf:resource="http://purl.org/dc/dcmitype/StillImage" />
        <dc:title />
      </cc:Work>
    </rdf:RDF>
  </metadata>
  <g
     inkscape:label="Layer 1"
     inkscape:groupmode="layer"
     id="layer1"
     transform="translate(125.10816,-20.546806)">
    <path
       inkscape:connector-curvature="0"
       style="opacity:1;vector-effect:none;fill:#ffe066;fill-opacity:1;stroke:none;stroke-width:1.28308;stroke-linecap:round;stroke-linejoin:round;stroke-miterlimit:4;stroke-dasharray:none;stroke-dashoffset:0;stroke-opacity:1"
       d="M -125.10816,20.546856 V 209.08415 H 61.231943 247.57244 V 20.546856 H 61.231943 Z"
       id="rect951-6-92-3-6-4-5-0-9-3-1-7-9-3-6-8-3-8-1"
       inkscape:export-filename="/home/midhil/Pictures/THNK/PNG/Banner/Banner-Type-2A-Pattern.png"
       inkscape:export-xdpi="169.85782"
       inkscape:export-ydpi="169.85782" />
    <path
       style="opacity:1;vector-effect:none;fill:#ffd43b;fill-opacity:1;stroke:none;stroke-width:1.57432;stroke-linecap:round;stroke-linejoin:round;stroke-miterlimit:4;stroke-dasharray:none;stroke-dashoffset:0;stroke-opacity:1"
       d="m 219.19945,113.25929 a 72.719388,72.719388 0 0 0 -72.71941,72.71936 72.719388,72.719388 0 0 0 3.864,23.1053 h 97.2284 v -90.05716 a 72.719388,72.719388 0 0 0 -28.37299,-5.7675 z"
       id="rect951-6-92-3-6-4-5-0-9-3-1-7-9-3-6-4-9-1-6-8-5"
       inkscape:connector-curvature="0"
       inkscape:export-filename="/home/midhil/Pictures/THNK/PNG/Banner/Banner-Type-2A-Pattern.png"
       inkscape:export-xdpi="169.85782"
       inkscape:export-ydpi="169.85782" />
    <path
       style="opacity:1;vector-effect:none;fill:#fff3bf;fill-opacity:1;stroke:none;stroke-width:1.28308;stroke-linecap:round;stroke-linejoin:round;stroke-miterlimit:4;stroke-dasharray:none;stroke-dashoffset:0;stroke-opacity:1"
       d="m 168.19744,20.546806 a 39.6875,39.6875 0 0 0 39.6875,39.687481 39.6875,39.6875 0 0 0 39.6875,-39.687481 z"
       id="rect951-6-92-3-6-4-5-0-9-3-1-7-9-3-6-5-9-5-4-9"
       inkscape:connector-curvature="0"
       inkscape:export-filename="/home/midhil/Pictures/THNK/PNG/Banner/Banner-Type-2A-Pattern.png"
       inkscape:export-xdpi="169.85782"
       inkscape:export-ydpi="169.85782" />
    <path
       style="opacity:1;vector-effect:none;fill:#fff3bf;fill-opacity:1;stroke:none;stroke-width:1.28308;stroke-linecap:round;stroke-linejoin:round;stroke-miterlimit:4;stroke-dasharray:none;stroke-dashoffset:0;stroke-opacity:1"
       d="m -16.524617,20.546806 c -43.396088,36.024201 -78.254778,73.92738 -100.904953,108.653384 -2.73463,4.1925 -5.29696,8.3358 -7.67602,12.43686 v 67.4471 h 27.779183 c -1.116121,-0.5227 -1.64987,-1.0342 -1.87998,-1.324 -0.61086,-0.7694 -2.258003,-3.9691 0.0734,-13.825 2.331381,-9.856 8.801481,-24.1835 19.26962,-40.2327 20.93636,-32.09836 57.31821,-71.324564 103.06297,-107.647144 11.51376,-9.1422 23.07204,-17.6632 34.49764,-25.5085 z m 203.627857,0 c -21.20979,31.5219 -56.7442,69.446082 -101.069797,104.641684 -45.7447,36.32236 -92.1969201,62.86606 -128.20507,75.98296 -10.31671,3.7581 -19.782819,6.364 -27.893389,7.9127 H 43.640243 c 22.9844,-13.6699 46.6892,-30.0381 70.282497,-48.7717 48.9085,-38.83466 88.0635,-80.439563 112.73881,-118.270244 4.76268,-7.302 9.00379,-14.4538 12.65869,-21.4954 z"
       id="rect951-6-92-3-6-4-5-0-9-3-1-7-9-3-6-8-3-9-3-8"
       inkscape:connector-curvature="0"
       inkscape:export-filename="/home/midhil/Pictures/THNK/PNG/Banner/Banner-Type-2A-Pattern.png"
       inkscape:export-xdpi="169.85782"
       inkscape:export-ydpi="169.85782" />
    <path
       style="opacity:1;vector-effect:none;fill:#ffd43b;fill-opacity:1;stroke:none;stroke-width:1.28308;stroke-linecap:round;stroke-linejoin:round;stroke-miterlimit:4;stroke-dasharray:none;stroke-dashoffset:0;stroke-opacity:1"
       d="M -125.10559,20.546806 V 127.77899 a 62.22275,62.22275 0 0 0 15.94631,2.1554 62.22275,62.22275 0 0 0 62.223094,-62.222604 62.22275,62.22275 0 0 0 -21.68086,-47.16498 z"
       id="rect951-6-92-3-6-4-5-0-9-3-1-7-9-3-6-8-3-3-1-6"
       inkscape:connector-curvature="0"
       inkscape:export-filename="/home/midhil/Pictures/THNK/PNG/Banner/Banner-Type-2A-Pattern.png"
       inkscape:export-xdpi="169.85782"
       inkscape:export-ydpi="169.85782" />
  </g>
</svg>
